<svg xmlns="http://www.w3.org/2000/svg" width="92" height="92" viewBox="0 0 92 92" fill="none">
<g filter="url(#filter0_d_338_5315)">
<g filter="url(#filter1_d_338_5315)">
<circle cx="46" cy="44" r="36" fill="white"/>
</g>
<path d="M31 34.4545C31 33.0079 31.5747 31.6205 32.5976 30.5976C33.6205 29.5747 35.0079 29 36.4545 29H41.0132C41.3748 29 41.7217 29.1437 41.9774 29.3994C42.2332 29.6551 42.3768 30.002 42.3768 30.3636C42.3768 30.7253 42.2332 31.0721 41.9774 31.3279C41.7217 31.5836 41.3748 31.7273 41.0132 31.7273H36.4545C35.7312 31.7273 35.0375 32.0146 34.5261 32.5261C34.0146 33.0375 33.7273 33.7312 33.7273 34.4545V39.0105C33.7273 39.3721 33.5836 39.719 33.3279 39.9747C33.0721 40.2304 32.7253 40.3741 32.3636 40.3741C32.002 40.3741 31.6551 40.2304 31.3994 39.9747C31.1437 39.719 31 39.3721 31 39.0105V34.4545ZM49.6259 30.3636C49.6259 30.002 49.7696 29.6551 50.0253 29.3994C50.281 29.1437 50.6279 29 50.9895 29H55.5455C56.9921 29 58.3795 29.5747 59.4024 30.5976C60.4253 31.6205 61 33.0079 61 34.4545V39.0105C61 39.3721 60.8563 39.719 60.6006 39.9747C60.3449 40.2304 59.998 40.3741 59.6364 40.3741C59.2747 40.3741 58.9279 40.2304 58.6721 39.9747C58.4164 39.719 58.2727 39.3721 58.2727 39.0105V34.4545C58.2727 33.7312 57.9854 33.0375 57.4739 32.5261C56.9625 32.0146 56.2688 31.7273 55.5455 31.7273H50.9895C50.6279 31.7273 50.281 31.5836 50.0253 31.3279C49.7696 31.0721 49.6259 30.7253 49.6259 30.3636ZM32.3636 47.6259C32.7253 47.6259 33.0721 47.7696 33.3279 48.0253C33.5836 48.281 33.7273 48.6279 33.7273 48.9895V53.5455C33.7273 54.2688 34.0146 54.9625 34.5261 55.4739C35.0375 55.9854 35.7312 56.2727 36.4545 56.2727H41.0105C41.3721 56.2727 41.719 56.4164 41.9747 56.6721C42.2304 56.9279 42.3741 57.2747 42.3741 57.6364C42.3741 57.998 42.2304 58.3449 41.9747 58.6006C41.719 58.8563 41.3721 59 41.0105 59H36.4545C35.0079 59 33.6205 58.4253 32.5976 57.4024C31.5747 56.3795 31 54.9921 31 53.5455V48.9895C31 48.6279 31.1437 48.281 31.3994 48.0253C31.6551 47.7696 32.002 47.6259 32.3636 47.6259ZM59.6364 47.6259C59.998 47.6259 60.3449 47.7696 60.6006 48.0253C60.8563 48.281 61 48.6279 61 48.9895V53.5455C61 54.9921 60.4253 56.3795 59.4024 57.4024C58.3795 58.4253 56.9921 59 55.5455 59H50.9895C50.6279 59 50.281 58.8563 50.0253 58.6006C49.7696 58.3449 49.6259 57.998 49.6259 57.6364C49.6259 57.2747 49.7696 56.9279 50.0253 56.6721C50.281 56.4164 50.6279 56.2727 50.9895 56.2727H55.5455C56.2688 56.2727 56.9625 55.9854 57.4739 55.4739C57.9854 54.9625 58.2727 54.2688 58.2727 53.5455V48.9895C58.2727 48.6279 58.4164 48.281 58.6721 48.0253C58.9279 47.7696 59.2747 47.6259 59.6364 47.6259Z" fill="#363F60"/>
<path fill-rule="evenodd" clip-rule="evenodd" d="M49.1799 35.2926L46.2399 33.9026C46.0899 33.8326 45.9199 33.8326 45.7699 33.9026L42.8199 35.2926C42.3999 35.4926 42.2099 36.0026 42.4099 36.4226C42.5499 36.7326 42.8599 36.9126 43.1799 36.9126C43.2999 36.9126 43.4199 36.8826 43.5399 36.8326L45.1499 36.0726V38.1426C45.1499 38.6126 45.5299 38.9926 45.9999 38.9926C46.4699 38.9926 46.8499 38.6126 46.8499 38.1426V36.0726L48.4599 36.8326C48.8799 37.0326 49.3899 36.8526 49.5899 36.4226C49.7899 35.9926 49.6099 35.4926 49.1799 35.2926ZM48.46 41.0226L46 42.1826L43.54 41.0226C43.12 40.8226 42.61 41.0026 42.41 41.4326C42.21 41.8526 42.39 42.3626 42.82 42.5626L45.12 43.6426C45.12 43.6626 45.115 43.6801 45.11 43.6976C45.105 43.7151 45.1 43.7326 45.1 43.7526V45.8326C45.1 46.3026 45.48 46.6826 45.95 46.6826C46.42 46.6826 46.8 46.3026 46.8 45.8326V43.7526C46.8 43.7426 46.7975 43.7326 46.795 43.7226C46.7925 43.7126 46.79 43.7026 46.79 43.6926L49.19 42.5626C49.61 42.3626 49.8 41.8526 49.6 41.4326C49.39 41.0126 48.88 40.8226 48.46 41.0226ZM52.3499 36.8526L54.9799 38.1126C55.18 38.2026 55.2999 38.4026 55.2999 38.6126V41.6426C55.2999 42.1126 54.92 42.4926 54.45 42.4926C53.9799 42.4926 53.5999 42.1126 53.5999 41.6426V40.5226L52.21 41.1726C52.09 41.2226 51.9699 41.2526 51.8499 41.2526C51.53 41.2526 51.22 41.0726 51.08 40.7626C50.88 40.3426 51.07 39.8326 51.49 39.6326L52.8699 38.9826L51.62 38.3826C51.2 38.1826 51.02 37.6726 51.22 37.2526C51.42 36.8326 51.9299 36.6526 52.3499 36.8526ZM40.51 39.6326L39.13 38.9826L40.38 38.3826C40.8 38.1826 40.98 37.6726 40.78 37.2526C40.58 36.8226 40.07 36.6426 39.65 36.8526L37.02 38.1126C36.82 38.2026 36.7 38.4026 36.7 38.6126V41.6326C36.7 42.1026 37.08 42.4826 37.55 42.4826C38.02 42.4826 38.4 42.1126 38.4 41.6426V40.5126L39.79 41.1626C39.91 41.2226 40.03 41.2526 40.15 41.2526C40.47 41.2526 40.78 41.0726 40.92 40.7626C41.12 40.3426 40.94 39.8326 40.51 39.6326ZM53.6 46.5126C53.6 46.0426 53.98 45.6626 54.45 45.6626C54.92 45.6626 55.3 46.0426 55.31 46.5126V49.5326C55.31 49.7526 55.18 49.9526 54.99 50.0426L52.36 51.3026C52.24 51.3526 52.11 51.3826 51.99 51.3826C51.67 51.3826 51.37 51.2026 51.22 50.9026C51.02 50.4826 51.2 49.9726 51.62 49.7726L52.87 49.1726L51.49 48.5226C51.06 48.3226 50.88 47.8226 51.08 47.3926C51.28 46.9626 51.79 46.7826 52.21 46.9826L53.6 47.6326V46.5126ZM40.92 47.3826C40.72 46.9626 40.21 46.7726 39.79 46.9726L38.4 47.6326V46.5126C38.4 46.0426 38.02 45.6626 37.55 45.6626C37.08 45.6626 36.7 46.0426 36.7 46.5126V49.5426C36.7 49.7526 36.82 49.9526 37.01 50.0426L39.64 51.3026C39.76 51.3626 39.88 51.3826 40.01 51.3826C40.33 51.3826 40.63 51.2026 40.78 50.9026C40.98 50.4826 40.8 49.9726 40.38 49.7726L39.13 49.1726L40.51 48.5226C40.94 48.3226 41.12 47.8126 40.92 47.3826ZM46.85 51.9426L48.46 51.1826C48.88 50.9826 49.39 51.1626 49.59 51.5926C49.79 52.0126 49.6 52.5226 49.18 52.7226L46.24 54.1026C46.09 54.1726 45.91 54.1726 45.76 54.1026L42.82 52.7226C42.39 52.5226 42.21 52.0126 42.41 51.5926C42.61 51.1626 43.12 50.9826 43.54 51.1826L45.15 51.9426V49.8726C45.15 49.4026 45.53 49.0226 46 49.0226C46.47 49.0226 46.85 49.4026 46.85 49.8726V51.9426Z" fill="url(#paint0_linear_338_5315)"/>
</g>
<defs>
<filter id="filter0_d_338_5315" x="6" y="8" width="80" height="80" filterUnits="userSpaceOnUse" color-interpolation-filters="sRGB">
<feFlood flood-opacity="0" result="BackgroundImageFix"/>
<feColorMatrix in="SourceAlpha" type="matrix" values="0 0 0 0 0 0 0 0 0 0 0 0 0 0 0 0 0 0 127 0" result="hardAlpha"/>
<feOffset dy="4"/>
<feGaussianBlur stdDeviation="2"/>
<feComposite in2="hardAlpha" operator="out"/>
<feColorMatrix type="matrix" values="0 0 0 0 0 0 0 0 0 0 0 0 0 0 0 0 0 0 0.25 0"/>
<feBlend mode="normal" in2="BackgroundImageFix" result="effect1_dropShadow_338_5315"/>
<feBlend mode="normal" in="SourceGraphic" in2="effect1_dropShadow_338_5315" result="shape"/>
</filter>
<filter id="filter1_d_338_5315" x="0" y="0" width="92" height="92" filterUnits="userSpaceOnUse" color-interpolation-filters="sRGB">
<feFlood flood-opacity="0" result="BackgroundImageFix"/>
<feColorMatrix in="SourceAlpha" type="matrix" values="0 0 0 0 0 0 0 0 0 0 0 0 0 0 0 0 0 0 127 0" result="hardAlpha"/>
<feOffset dy="2"/>
<feGaussianBlur stdDeviation="5"/>
<feColorMatrix type="matrix" values="0 0 0 0 0 0 0 0 0 0 0 0 0 0 0 0 0 0 0.1 0"/>
<feBlend mode="normal" in2="BackgroundImageFix" result="effect1_dropShadow_338_5315"/>
<feBlend mode="normal" in="SourceGraphic" in2="effect1_dropShadow_338_5315" result="shape"/>
</filter>
<linearGradient id="paint0_linear_338_5315" x1="46.005" y1="33.8501" x2="46.005" y2="54.1551" gradientUnits="userSpaceOnUse">
<stop stop-color="#4C4C4C"/>
<stop offset="1" stop-color="#CACACA" stop-opacity="0.9"/>
</linearGradient>
</defs>
</svg>