<svg width="24" height="24" viewBox="0 0 24 24" fill="none" xmlns="http://www.w3.org/2000/svg">
<g clip-path="url(#clip0_718_3758)">
<path d="M6.6665 3.4668H18.6665V4.50013H6.6665V3.4668Z" fill="#CCCCCC"/>
<path d="M19.3333 5.3335H6.57329C6.40316 5.33108 6.23527 5.29424 6.07977 5.22518C5.92426 5.15613 5.78436 5.05629 5.66848 4.9317C5.55261 4.8071 5.46317 4.66033 5.40556 4.50023C5.34795 4.34013 5.32337 4.17002 5.33329 4.00016C5.33246 3.66213 5.46005 3.33641 5.69026 3.08888C5.92046 2.84135 6.23609 2.69049 6.57329 2.66683H19.3333C19.5101 2.66683 19.6797 2.59659 19.8047 2.47157C19.9297 2.34654 20 2.17697 20 2.00016C20 1.82335 19.9297 1.65378 19.8047 1.52876C19.6797 1.40373 19.5101 1.3335 19.3333 1.3335H6.57329C5.88234 1.35769 5.22781 1.64929 4.74772 2.14679C4.26763 2.64429 3.99953 3.3088 3.99995 4.00016C3.9935 4.10896 3.9935 4.21804 3.99995 4.32683C3.99353 4.37997 3.99353 4.43369 3.99995 4.48683V20.0002C3.99953 20.6915 4.26763 21.356 4.74772 21.8535C5.22781 22.351 5.88234 22.6426 6.57329 22.6668H19.3333C19.5101 22.6668 19.6797 22.5966 19.8047 22.4716C19.9297 22.3465 20 22.177 20 22.0002V6.04683C20.0003 5.86546 19.9316 5.69075 19.8078 5.55823C19.6839 5.42572 19.5143 5.34536 19.3333 5.3335Z" fill="#CCCCCC"/>
</g>
<defs>
<clipPath id="clip0_718_3758">
<rect width="24" height="24" fill="white"/>
</clipPath>
</defs>
</svg>
