<svg width="25" height="28" viewBox="0 0 25 28" fill="none" xmlns="http://www.w3.org/2000/svg">
<path fill-rule="evenodd" clip-rule="evenodd" d="M16.64 1.92333L12.72 0.07C12.52 -0.0233333 12.2933 -0.0233333 12.0933 0.07L8.15998 1.92333C7.59998 2.19 7.34665 2.87 7.61331 3.43C7.79998 3.84333 8.21332 4.08333 8.63998 4.08333C8.79998 4.08333 8.95998 4.04333 9.11998 3.97667L11.2666 2.96333V5.72333C11.2666 6.35 11.7733 6.85667 12.4 6.85667C13.0266 6.85667 13.5333 6.35 13.5333 5.72333V2.96333L15.68 3.97667C16.24 4.24333 16.92 4.00333 17.1866 3.43C17.4533 2.85667 17.2133 2.19 16.64 1.92333ZM15.68 9.56333L12.4 11.11L9.12 9.56333C8.56 9.29667 7.88 9.53667 7.61334 10.11C7.34667 10.67 7.58667 11.35 8.16 11.6167L11.2267 13.0567C11.2267 13.0833 11.22 13.1067 11.2133 13.13C11.2067 13.1533 11.2 13.1767 11.2 13.2033V15.9767C11.2 16.6033 11.7067 17.11 12.3333 17.11C12.96 17.11 13.4667 16.6033 13.4667 15.9767V13.2033C13.4667 13.19 13.4633 13.1767 13.46 13.1633C13.4567 13.15 13.4533 13.1367 13.4533 13.1233L16.6533 11.6167C17.2133 11.35 17.4667 10.67 17.2 10.11C16.92 9.55 16.24 9.29667 15.68 9.56333ZM20.8667 4.00333L24.3733 5.68333C24.64 5.80333 24.8 6.07 24.8 6.35V10.39C24.8 11.0167 24.2933 11.5233 23.6667 11.5233C23.04 11.5233 22.5333 11.0167 22.5333 10.39V8.89667L20.68 9.76333C20.52 9.83 20.36 9.87 20.2 9.87C19.7733 9.87 19.36 9.63 19.1733 9.21667C18.9067 8.65667 19.16 7.97667 19.72 7.71L21.56 6.84333L19.8933 6.04333C19.3333 5.77667 19.0933 5.09667 19.36 4.53667C19.6267 3.97667 20.3067 3.73667 20.8667 4.00333ZM5.08 7.71L3.24 6.84333L4.90667 6.04333C5.46667 5.77666 5.70667 5.09666 5.44 4.53666C5.17333 3.96333 4.49333 3.72333 3.93333 4.00333L0.426667 5.68333C0.16 5.80333 0 6.07 0 6.35V10.3767C0 11.0033 0.506667 11.51 1.13333 11.51C1.76 11.51 2.26667 11.0167 2.26667 10.39V8.88333L4.12 9.75C4.28 9.83 4.44 9.87 4.6 9.87C5.02667 9.87 5.44 9.63 5.62667 9.21666C5.89333 8.65666 5.65333 7.97666 5.08 7.71ZM22.5334 16.8833C22.5334 16.2567 23.04 15.75 23.6667 15.75C24.2934 15.75 24.8 16.2567 24.8134 16.8833V20.91C24.8134 21.2033 24.64 21.47 24.3867 21.59L20.88 23.27C20.72 23.3367 20.5467 23.3767 20.3867 23.3767C19.96 23.3767 19.56 23.1367 19.36 22.7367C19.0934 22.1767 19.3334 21.4967 19.8934 21.23L21.56 20.43L19.72 19.5633C19.1467 19.2967 18.9067 18.63 19.1734 18.0567C19.44 17.4833 20.12 17.2433 20.68 17.51L22.5334 18.3767V16.8833ZM5.62667 18.0433C5.36 17.4833 4.68 17.23 4.12 17.4967L2.26667 18.3767V16.8833C2.26667 16.2567 1.76 15.75 1.13333 15.75C0.506667 15.75 0 16.2567 0 16.8833V20.9233C0 21.2033 0.16 21.47 0.413333 21.59L3.92 23.27C4.08 23.35 4.24 23.3767 4.41333 23.3767C4.84 23.3767 5.24 23.1367 5.44 22.7367C5.70667 22.1767 5.46667 21.4967 4.90667 21.23L3.24 20.43L5.08 19.5633C5.65333 19.2967 5.89333 18.6167 5.62667 18.0433ZM13.5333 24.1233L15.68 23.11C16.24 22.8433 16.92 23.0833 17.1867 23.6567C17.4533 24.2167 17.2 24.8967 16.64 25.1633L12.72 27.0033C12.52 27.0967 12.28 27.0967 12.08 27.0033L8.16 25.1633C7.58667 24.8967 7.34667 24.2167 7.61334 23.6567C7.88 23.0833 8.56 22.8433 9.12 23.11L11.2667 24.1233V21.3633C11.2667 20.7367 11.7733 20.23 12.4 20.23C13.0267 20.23 13.5333 20.7367 13.5333 21.3633V24.1233Z" fill="blue"/>
</svg>
