<svg width="24" height="24" viewBox="0 0 24 24" fill="none" xmlns="http://www.w3.org/2000/svg">
<path d="M10 14H14V21H10V14Z" fill="url(#paint0_linear_718_3763)"/>
<path d="M20.4201 10.1802L12.7101 2.30019C12.6172 2.20646 12.5066 2.13207 12.3847 2.0813C12.2628 2.03053 12.1321 2.00439 12.0001 2.00439C11.8681 2.00439 11.7374 2.03053 11.6155 2.0813C11.4937 2.13207 11.3831 2.20646 11.2901 2.30019L3.58012 10.1902C3.39355 10.3783 3.24621 10.6015 3.14664 10.847C3.04708 11.0925 2.99727 11.3553 3.00012 11.6202V20.0002C2.99934 20.5121 3.19489 21.0048 3.54649 21.3769C3.89809 21.749 4.37898 21.972 4.89012 22.0002H8.00012V13.0002C8.00012 12.735 8.10547 12.4806 8.29301 12.2931C8.48055 12.1055 8.7349 12.0002 9.00012 12.0002H15.0001C15.2653 12.0002 15.5197 12.1055 15.7072 12.2931C15.8948 12.4806 16.0001 12.735 16.0001 13.0002V22.0002H19.1101C19.6213 21.972 20.1021 21.749 20.4537 21.3769C20.8053 21.0048 21.0009 20.5121 21.0001 20.0002V11.6202C21.0009 11.0831 20.7929 10.5668 20.4201 10.1802Z" fill="url(#paint1_linear_718_3763)"/>
<defs>
<linearGradient id="paint0_linear_718_3763" x1="12" y1="14" x2="12" y2="21" gradientUnits="userSpaceOnUse">
<stop stop-color="#2423F9"/>
<stop offset="1" stop-color="#4943F8" stop-opacity="0.8"/>
</linearGradient>
<linearGradient id="paint1_linear_718_3763" x1="12.0001" y1="2.00439" x2="12.0001" y2="22.0002" gradientUnits="userSpaceOnUse">
<stop stop-color="#2423F9"/>
<stop offset="1" stop-color="#4943F8" stop-opacity="0.8"/>
</linearGradient>
</defs>
</svg>
