<svg xmlns="http://www.w3.org/2000/svg" width="12" height="13" viewBox="0 0 12 13" fill="none">
<path d="M6.66675 3.07023V0.0576172H3.83341C3.43559 0.0576172 3.05406 0.207964 2.77275 0.475584C2.49145 0.743203 2.33341 1.10617 2.33341 1.48464V9.72969C2.33341 10.1082 2.49145 10.4711 2.77275 10.7387C3.05406 11.0064 3.43559 11.1567 3.83341 11.1567H9.83342C10.0304 11.1567 10.2255 11.1198 10.4074 11.0481C10.5894 10.9764 10.7548 10.8713 10.8941 10.7387C11.0334 10.6062 11.1439 10.4489 11.2192 10.2758C11.2946 10.1027 11.3334 9.91709 11.3334 9.72969V4.49726H8.16675C7.76892 4.49726 7.38739 4.34691 7.10609 4.07929C6.82478 3.81167 6.66675 3.4487 6.66675 3.07023ZM7.66675 3.07023V0.374734L11.0001 3.54591H8.16675C8.03414 3.54591 7.90696 3.49579 7.8132 3.40658C7.71943 3.31738 7.66675 3.19639 7.66675 3.07023ZM1.66875 1.72375C1.3758 1.82194 1.12209 2.00419 0.942619 2.24536C0.763149 2.48653 0.66676 2.77474 0.666748 3.07023V9.73223C0.666748 10.5312 1.00038 11.2975 1.59424 11.8625C2.18811 12.4274 2.99356 12.7448 3.83341 12.7448H8.16275C8.47302 12.7449 8.77568 12.6535 9.02904 12.4831C9.2824 12.3127 9.47399 12.0718 9.57741 11.7935H3.83341C3.25878 11.7935 2.70768 11.5763 2.30135 11.1898C1.89502 10.8032 1.66675 10.2789 1.66675 9.73223L1.66875 1.72375Z" fill="#F7F7F7"/>
</svg>