<svg width="18" height="14" viewBox="0 0 18 14" fill="none" xmlns="http://www.w3.org/2000/svg">
<path fill-rule="evenodd" clip-rule="evenodd" d="M16.8514 1.43926C17.094 1.24519 17.1333 0.891215 16.9393 0.64863C16.7452 0.406045 16.3912 0.366714 16.1486 0.560782L13.6546 2.55598C13.5184 2.43363 13.3789 2.31361 13.2362 2.19681C12.0576 1.23176 10.6057 0.437521 9.00002 0.437521C7.39431 0.437521 5.94246 1.23176 4.76382 2.19681C3.57875 3.16712 2.60973 4.35901 1.95858 5.26603L1.90488 5.34071C1.51288 5.8854 1.19021 6.33376 1.19021 7.00002C1.19021 7.66628 1.51288 8.11464 1.90488 8.65933L1.95858 8.73401C2.36707 9.30302 2.90066 9.98413 3.5342 10.6523L1.14863 12.5608C0.906045 12.7548 0.866714 13.1088 1.06078 13.3514C1.25485 13.594 1.60883 13.6333 1.85141 13.4393L16.8514 1.43926ZM6.49634 8.28262L7.40589 7.55497C7.3454 7.38117 7.31252 7.19444 7.31252 7.00002C7.31252 6.06804 8.06804 5.31252 9.00002 5.31252C9.32716 5.31252 9.63256 5.40561 9.89117 5.56675L10.8005 4.83928C10.3127 4.43236 9.68495 4.18752 9.00002 4.18752C7.44672 4.18752 6.18752 5.44672 6.18752 7.00002C6.18752 7.46204 6.29892 7.89804 6.49634 8.28262Z" fill="#F7F7F7"/>
<path d="M15.5214 4.57363L11.7505 7.59037C11.4792 8.86023 10.3508 9.81252 9.00002 9.81252L8.97293 9.81239L5.66104 12.4619C6.65052 13.1047 7.78093 13.5625 9.00002 13.5625C10.6057 13.5625 12.0576 12.7683 13.2362 11.8032C14.4213 10.8329 15.3903 9.64103 16.0415 8.73401L16.0952 8.65933C16.4872 8.11465 16.8098 7.66628 16.8098 7.00002C16.8098 6.33376 16.4872 5.8854 16.0952 5.34072L16.0415 5.26603C15.8858 5.0492 15.712 4.8161 15.5214 4.57363Z" fill="#F7F7F7"/>
</svg>
