<svg xmlns="http://www.w3.org/2000/svg" width="30" height="30" viewBox="0 0 30 30" fill="none">
<path fill-rule="evenodd" clip-rule="evenodd" d="M9.08296 9H7.875V20H22.625V9H20.917C20.441 11.8377 17.973 14 15 14C12.027 14 9.55904 11.8377 9.08296 9ZM23.375 9V20H24C25.6569 20 27 18.6569 27 17V12C27 10.3431 25.6569 9 24 9H23.375ZM6 9H7.125V20H6C4.34315 20 3 18.6569 3 17V12C3 10.3431 4.34315 9 6 9Z" fill="#828282"/>
<path fill-rule="evenodd" clip-rule="evenodd" d="M10.1001 9C10.5634 11.2822 12.5811 13 15.0001 13C17.419 13 19.4368 11.2822 19.9001 9H18.3551C17.9249 10.4457 16.5856 11.5 15.0001 11.5C13.4146 11.5 12.0753 10.4457 11.645 9H10.1001Z" fill="#828282"/>
</svg>